<?xml version="1.0" standalone="no"?>
<!DOCTYPE svg PUBLIC "-//W3C//DTD SVG 20010904//EN"
 "http://www.w3.org/TR/2001/REC-SVG-20010904/DTD/svg10.dtd">
<svg version="1.0" xmlns="http://www.w3.org/2000/svg"
 width="375.000000pt" height="375.000000pt" viewBox="0 0 375.000000 375.000000"
 preserveAspectRatio="xMidYMid meet">
<metadata>
Created by potrace 1.14, written by Peter Selinger 2001-2017
</metadata>
<g transform="translate(0.000000,375.000000) scale(0.100000,-0.100000)"
fill="#000000" stroke="none">
<path d="M1641 3733 c-86 -11 -173 -29 -321 -67 -188 -49 -507 -225 -669 -371
-127 -114 -321 -334 -321 -364 0 -5 -4 -11 -8 -13 -21 -8 -192 -326 -192 -356
0 -5 -7 -22 -15 -39 -8 -16 -16 -38 -18 -49 -2 -10 -6 -26 -9 -34 -26 -69 -60
-225 -75 -335 -10 -77 -10 -383 0 -455 4 -30 10 -73 13 -95 12 -81 67 -284 93
-340 5 -11 17 -41 27 -67 9 -27 21 -48 27 -48 6 0 8 -3 4 -6 -7 -7 50 -126 65
-135 5 -3 9 -10 9 -15 -2 -16 100 -170 142 -215 9 -11 17 -22 17 -25 0 -13
174 -194 241 -250 70 -59 80 -67 134 -104 28 -19 51 -38 53 -42 2 -5 7 -8 12
-8 4 0 39 -19 76 -42 115 -69 350 -171 416 -180 13 -2 28 -6 33 -10 13 -7 138
-36 190 -43 22 -3 65 -8 95 -12 124 -17 451 -7 553 17 130 29 182 43 234 61
32 11 66 22 77 24 10 2 23 8 30 13 6 6 26 13 44 17 17 3 32 11 32 16 0 5 6 9
14 9 30 0 246 120 254 142 2 4 8 8 14 8 10 0 85 52 137 95 123 100 206 186
328 339 59 73 163 255 221 386 60 136 115 330 116 412 1 20 4 34 9 31 4 -2 7
4 8 14 0 10 3 38 6 63 17 153 4 447 -26 580 -5 25 -12 59 -16 77 -3 18 -10 45
-17 60 -6 15 -11 31 -10 35 3 15 -64 187 -108 278 -71 143 -124 227 -230 364
-47 60 -160 176 -231 237 -35 30 -66 56 -69 59 -47 50 -400 255 -400 232 0 -4
-4 -2 -8 4 -23 35 -340 126 -517 149 -96 13 -360 11 -464 -2z"/>
</g>
</svg>
