<?xml version="1.0" encoding="UTF-8"?><svg xmlns="http://www.w3.org/2000/svg" xmlns:xlink="http://www.w3.org/1999/xlink" contentScriptType="text/ecmascript" width="375" zoomAndPan="magnify" contentStyleType="text/css" viewBox="0 0 375 374.999991" height="374.999991" preserveAspectRatio="xMidYMid meet" version="1.0"><defs><clipPath id="clip-0"><path d="M 33 5 L 343 5 L 343 247 L 33 247 Z M 33 5 " clip-rule="nonzero"/></clipPath><clipPath id="clip-1"><path d="M -74.238281 113.261719 L 187.746094 -148.722656 L 449.730469 113.261719 L 187.746094 375.242188 Z M -74.238281 113.261719 " clip-rule="nonzero"/></clipPath><clipPath id="clip-2"><path d="M -74.238281 113.261719 L 187.746094 -148.722656 L 449.730469 113.261719 L 187.746094 375.242188 Z M -74.238281 113.261719 " clip-rule="nonzero"/></clipPath><clipPath id="clip-3"><path d="M 33 134 L 343 134 L 343 375 L 33 375 Z M 33 134 " clip-rule="nonzero"/></clipPath><clipPath id="clip-4"><path d="M -74.238281 113.261719 L 187.746094 -148.722656 L 449.730469 113.261719 L 187.746094 375.242188 Z M -74.238281 113.261719 " clip-rule="nonzero"/></clipPath><clipPath id="clip-5"><path d="M -74.238281 113.261719 L 187.746094 -148.722656 L 449.730469 113.261719 L 187.746094 375.242188 Z M -74.238281 113.261719 " clip-rule="nonzero"/></clipPath></defs><g clip-path="url(#clip-0)"><g clip-path="url(#clip-1)"><g clip-path="url(#clip-2)"><path fill="rgb(29.40979%, 33.329773%, 38.819885%)" d="M 187.746094 159.542969 L 33.394531 5.191406 L 33.394531 92.519531 L 187.746094 246.871094 L 342.097656 92.519531 L 342.097656 5.191406 Z M 187.746094 159.542969 " fill-opacity="1" fill-rule="nonzero"/></g></g></g><g clip-path="url(#clip-3)"><g clip-path="url(#clip-4)"><g clip-path="url(#clip-5)"><path fill="rgb(29.40979%, 33.329773%, 38.819885%)" d="M 33.394531 134 L 33.394531 221.328125 L 187.746094 375.679688 L 342.097656 221.328125 L 342.097656 134 L 187.746094 288.351562 Z M 33.394531 134 " fill-opacity="1" fill-rule="nonzero"/></g></g></g></svg>